<?xml version="1.0" encoding="UTF-8"?>
<svg width="64px" height="50px" viewBox="0 0 64 50" version="1.1" xmlns="http://www.w3.org/2000/svg" xmlns:xlink="http://www.w3.org/1999/xlink">
    <!-- Generator: Sketch 55.1 (78136) - https://sketchapp.com -->
    <title>编组</title>
    <desc>Created with Sketch.</desc>
    <g id="Page-1" stroke="none" stroke-width="1" fill="none" fill-rule="evenodd">
        <g id="桌面端HD" transform="translate(-1536.000000, -5.000000)">
            <g id="矩形" transform="translate(150.000000, 0.000000)">
                <g id="编组" transform="translate(1386.562500, 5.000000)">
                    <path d="M25,0 L63.4375,0 L63.4375,50 L25,50 C11.1928813,50 1.69088438e-15,38.8071187 0,25 C-1.69088438e-15,11.1928813 11.1928813,2.53632657e-15 25,0 Z" id="矩形" fill="#FBFBFB"></path>
                    <path d="M27.20461,12.2574294 C29.0328505,10.244823 31.5585412,9 34.3483421,9 C38.4150183,9 41.9204942,11.6450894 43.5225365,15.4576798 L40.5326336,15.4576798 C39.181767,13.291107 36.915802,11.8700799 34.3483421,11.8700799 C32.2784898,11.8700799 30.4045902,12.7936583 29.0481537,14.2868824 L29.8960917,15.2203293 C30.2674427,15.6291286 30.2370849,16.2615654 29.8282856,16.6329164 C29.6442472,16.8000959 29.4045296,16.8927198 29.1558951,16.8927198 L25.8973704,16.8927198 C25.3450856,16.8927198 24.8973704,16.4450046 24.8973704,15.8927198 L24.8973704,12.3055944 C24.8973704,11.7533097 25.3450856,11.3055944 25.8973704,11.3055944 C26.1792482,11.3055944 26.448035,11.4245589 26.637567,11.6332039 L27.20461,12.2574294 Z M46.444695,31.9080389 C48.267921,32.8680644 50.7547917,34.4136 50.7476042,35.980235 C50.7476042,36.6475054 50.75,38.1666667 50.75,38.1666667 L33.3706554,38.1666667 C33.3706554,38.1666667 33.3730512,36.6475054 33.3730512,35.980235 C33.3730512,34.4109625 35.8599219,32.865427 37.6831478,31.9080389 C39.5015822,30.9427386 40.2035601,31.0508733 40.2035601,30.2649184 C40.2035601,29.4710511 39.475228,28.92774 38.943354,28.0732118 C37.9826265,26.5303137 37.9323141,24.7500466 37.9323141,23.972004 C37.9323141,19.5754037 41.1475168,19.0452798 41.8447031,19.0452798 L42.280744,19.0452798 C42.9779303,19.0452798 46.193133,19.5754037 46.193133,23.972004 C46.193133,24.7500466 46.1428206,26.5303137 45.1820931,28.0732118 C44.650219,28.92774 43.9242828,29.4710511 43.9242828,30.2649184 C43.9242828,31.0508733 44.6286565,30.9427386 46.444695,31.9080389 Z M33.391848,32.6331089 C32.3193351,33.6159517 31.7435733,34.6777165 31.7435733,35.980235 C31.7435733,36.1975112 31.7433201,36.5191177 31.742869,36.9171618 L31.7423771,37.3211238 C31.7419281,37.6578908 31.7419281,37.6578908 31.741554,37.9159698 L31.7411799,38.1635524 L31.741175,38.1666667 L19.03125,38.1666667 C19.03125,38.1666667 19.0336458,36.6475054 19.0336458,35.980235 C19.0336458,34.4109625 21.5205165,32.865427 23.3437425,31.9080389 C25.1621768,30.9427386 25.8641547,31.0508733 25.8641547,30.2649184 C25.8641547,29.4710511 25.1358227,28.92774 24.6039486,28.0732118 C23.6432211,26.5303137 23.5929087,24.7500466 23.5929087,23.972004 C23.5929087,19.5754037 26.8081114,19.0452798 27.5052977,19.0452798 L27.9413386,19.0452798 C28.6385249,19.0452798 31.8537276,19.5754037 31.8537276,23.972004 C31.8537276,24.7500466 31.8034152,26.5303137 30.8426877,28.0732118 C30.3108136,28.92774 29.5848774,29.4710511 29.5848774,30.2649184 C29.5848774,31.0508733 30.2892512,30.9427386 32.1052896,31.9080389 C32.5127458,32.1225863 32.9533468,32.3663761 33.391848,32.6331089 Z" id="形状结合" fill="#B3B3B3"></path>
                </g>
            </g>
        </g>
    </g>
</svg>