<?xml version="1.0" encoding="UTF-8"?>
<svg width="512px" height="512px" viewBox="0 0 512 512" version="1.1" xmlns="http://www.w3.org/2000/svg" xmlns:xlink="http://www.w3.org/1999/xlink">
    <title>PRING</title>
    <defs>
        <linearGradient x1="-2.22044605e-14%" y1="50%" x2="100%" y2="50%" id="linearGradient-1">
            <stop stop-color="#929297" offset="0%"></stop>
            <stop stop-color="#88878D" offset="78.0357361%"></stop>
            <stop stop-color="#BAB9C6" offset="100%"></stop>
        </linearGradient>
        <linearGradient x1="-1.11022302e-14%" y1="50%" x2="100%" y2="50%" id="linearGradient-2">
            <stop stop-color="#919FB7" offset="0%"></stop>
            <stop stop-color="#F8FAFE" offset="100%"></stop>
        </linearGradient>
        <linearGradient x1="100%" y1="100%" x2="0%" y2="1.11022302e-14%" id="linearGradient-3">
            <stop stop-color="#FE3876" offset="0%"></stop>
            <stop stop-color="#7C30DD" offset="71.4447846%"></stop>
            <stop stop-color="#3A30DD" offset="100%"></stop>
        </linearGradient>
    </defs>
    <g id="PRING" stroke="none" stroke-width="1" fill="none" fill-rule="evenodd">
        <g id="RING" fill-rule="nonzero">
            <path d="M250.303703,116.98943 C163.679332,116.633081 87.0976024,160.2243 40.746422,226.400948 C21.9766959,253.190409 8.1623505,283.751466 0.646043898,316.727344 C0.217786682,310.674836 0,304.563833 0,298.401692 C0,157.810779 113.366112,43.839324 253.209908,43.839324 C405.149346,43.839324 512,149.29567 512,279.382665 C512,380.668984 447.224466,467.023589 356.328307,500.295984 C334.237301,507.871605 311.665915,512.000001 288.135412,512.000001 C178.832079,512.000001 84.4033026,422.918864 84.4033026,313.031713 C84.4033026,294.15304 87.0186017,275.888465 97.7257495,258.584196 C93.7078049,269.257761 93.1346788,277.178928 93.1346788,285.234672 C93.1346788,376.537968 169.667844,447.627908 260.486055,447.627908 C351.304266,447.627908 424.926972,373.611964 424.926972,282.308669 C424.926972,204.986903 372.12594,140.063349 300.795482,121.992667 C286.255439,119.06977 271.390327,117.058723 250.303703,116.98943 Z" id="Combined-Shape-Copy-34" fill="url(#linearGradient-1)" transform="translate(256.000000, 277.919662) rotate(180.000000) translate(-256.000000, -277.919662) "></path>
            <path d="M250.303703,73.1501057 C163.679332,72.7937567 87.0976024,116.384976 40.746422,182.561624 C21.9766959,209.351084 8.1623505,239.912143 0.646043898,272.88802 C0.217786682,266.835511 0,260.724509 0,254.562368 C0,113.971454 113.366112,0 253.209908,0 C405.149346,0 512,105.456346 512,235.54334 C512,336.82966 447.224466,423.184264 356.328307,456.45666 C334.237301,464.032281 311.665915,468.160677 288.135412,468.160677 C178.832079,468.160677 84.4033026,379.07954 84.4033026,269.192389 C84.4033026,250.313716 87.0186017,232.049141 97.7257495,214.744871 C93.7078049,225.418436 93.1346788,233.339605 93.1346788,241.395349 C93.1346788,332.698643 169.667844,403.788584 260.486055,403.788584 C351.304266,403.788584 424.926972,329.772639 424.926972,238.469345 C424.926972,161.147578 372.12594,96.2240244 300.795482,78.1533428 C286.255439,75.2304457 271.390327,73.2193983 250.303703,73.1501057 Z" id="Combined-Shape-Copy-41" fill="url(#linearGradient-2)"></path>
        </g>
        <circle id="椭圆形" fill="url(#linearGradient-3)" fill-rule="nonzero" cx="394" cy="374" r="118"></circle>
        <text id="P" font-family="MicrosoftYaHeiHeavy, Microsoft YaHei" font-size="150" font-weight="800" fill="#FFFFFF">
            <tspan x="345" y="433">P</tspan>
        </text>
    </g>
</svg>