<?xml version="1.0" encoding="UTF-8"?>
<svg width="80px" height="80px" viewBox="0 0 80 80" version="1.1" xmlns="http://www.w3.org/2000/svg" xmlns:xlink="http://www.w3.org/1999/xlink">
    <!-- Generator: Sketch 55.1 (78136) - https://sketchapp.com -->
    <title>币/logo</title>
    <desc>Created with Sketch.</desc>
    <defs>
        <linearGradient x1="-2.22044605e-14%" y1="50%" x2="100%" y2="50%" id="linearGradient-1">
            <stop stop-color="#929297" offset="0%"></stop>
            <stop stop-color="#88878D" offset="78.0357361%"></stop>
            <stop stop-color="#BAB9C6" offset="100%"></stop>
        </linearGradient>
        <linearGradient x1="-1.11022302e-14%" y1="50%" x2="100%" y2="50%" id="linearGradient-2">
            <stop stop-color="#919FB7" offset="0%"></stop>
            <stop stop-color="#F8FAFE" offset="100%"></stop>
        </linearGradient>
    </defs>
    <g id="币/logo" stroke="none" stroke-width="1" fill="none" fill-rule="evenodd">
        <path d="M39.1989582,20.4516385 C27.017406,20.4015269 16.2481003,26.5315421 9.72996559,35.8376332 C7.09047286,39.6049011 5.14783054,43.9025499 4.09084992,48.5397826 C4.03062625,47.6886486 4,46.8292889 4,45.9627378 C4,26.1921406 19.9421095,10.1649049 39.6076433,10.1649049 C60.9741268,10.1649049 76,24.9947035 76,43.2881871 C76,57.5315757 66.8909406,69.675192 54.1086682,74.3541226 C51.0021205,75.4194443 47.8280193,76 44.5190424,76 C29.1482611,76 15.8692144,63.4729652 15.8692144,48.0200846 C15.8692144,45.3652711 16.2369909,42.7968153 17.7426835,40.3634024 C17.1776601,41.8643725 17.0970642,42.9782868 17.0970642,44.1111258 C17.0970642,56.9506516 27.8595405,66.9476744 40.6308514,66.9476744 C53.4021623,66.9476744 63.7553554,56.5391822 63.7553554,43.6996564 C63.7553554,32.8262831 56.3302103,23.6964083 46.2993647,21.1552187 C44.2546711,20.7441863 42.1642647,20.4613827 39.1989582,20.4516385 Z" id="Combined-Shape-Copy-34" fill="url(#linearGradient-1)" transform="translate(40.000000, 43.082452) scale(-1, -1) translate(-40.000000, -43.082452) "></path>
        <path d="M39.1989582,14.2867336 C27.017406,14.236622 16.2481003,20.3666372 9.72996559,29.6727283 C7.09047286,33.4399962 5.14783054,37.7376451 4.09084992,42.3748778 C4.03062625,41.5237437 4,40.664384 4,39.797833 C4,20.0272357 19.9421095,4 39.6076433,4 C60.9741268,4 76,18.8297986 76,37.1232822 C76,51.3666709 66.8909406,63.5102872 54.1086682,68.1892178 C51.0021205,69.2545395 47.8280193,69.8350951 44.5190424,69.8350951 C29.1482611,69.8350951 15.8692144,57.3080603 15.8692144,41.8551797 C15.8692144,39.2003663 16.2369909,36.6319104 17.7426835,34.1984975 C17.1776601,35.6994676 17.0970642,36.8133819 17.0970642,37.9462209 C17.0970642,50.7857467 27.8595405,60.7827696 40.6308514,60.7827696 C53.4021623,60.7827696 63.7553554,50.3742774 63.7553554,37.5347516 C63.7553554,26.6613782 56.3302103,17.5315034 46.2993647,14.9903138 C44.2546711,14.5792814 42.1642647,14.2964779 39.1989582,14.2867336 Z" id="Combined-Shape-Copy-41" fill="url(#linearGradient-2)"></path>
    </g>
</svg>