<?xml version="1.0" encoding="UTF-8"?>
<svg width="50px" height="25px" viewBox="0 0 50 25" version="1.1" xmlns="http://www.w3.org/2000/svg" xmlns:xlink="http://www.w3.org/1999/xlink">
    <!-- Generator: Sketch 55.1 (78136) - https://sketchapp.com -->
    <title>Fill 1</title>
    <desc>Created with Sketch.</desc>
    <g id="Page-1" stroke="none" stroke-width="1" fill="none" fill-rule="evenodd">
        <g id="桌面端HD" transform="translate(-50.000000, -18.000000)" fill="#F8F8F8">
            <g id="矩形">
                <g id="编组">
                    <path d="M99.6332203,22.1083014 L99.6332203,20.2799322 L95.7553082,20.2799322 C84.9334636,20.2799322 79.9128207,22.9966824 75.6119139,28.0431289 C75.3594073,27.9629534 75.0958419,27.9067384 74.8166101,27.9067384 C73.3734518,27.9067384 72.2039959,29.0771159 72.2039959,30.5193527 C72.2039959,31.0031702 72.3449941,31.4510469 72.5735403,31.839944 C71.6141994,32.9596358 70.6189177,33.947545 69.5268726,34.8018284 L69.5268726,27.3206281 C70.5166249,26.9483191 71.2243807,26.00188 71.2243807,24.8821881 C71.2243807,23.4390298 70.0549248,22.2695739 68.6117664,22.2695739 C67.1695296,22.2695739 66.0000737,23.4390298 66.0000737,24.8821881 C66.0000737,26.00188 66.7078295,26.9483191 67.6975818,27.3206281 L67.6975818,36.0542244 C66.0387791,37.0255456 64.1127249,37.7406738 61.7710484,38.2143542 L61.7710484,24.4085078 C62.7608006,24.0371203 63.469478,23.0888381 63.469478,21.9700678 C63.469478,20.5269095 62.3000221,19.3574536 60.8568638,19.3574536 C59.4137054,19.3574536 58.2442495,20.5269095 58.2442495,21.9700678 C58.2442495,23.0888381 58.9520053,24.0371203 59.9426792,24.4085078 L59.9426792,38.5230758 C58.2009363,38.759916 56.2472353,38.8843262 54.0161457,38.8898555 L54.0161457,23.0510543 C55.005898,22.6796668 55.7136538,21.7323061 55.7136538,20.6126143 C55.7136538,19.1694559 54.5441979,18 53.1019611,18 C51.6588027,18 50.4893468,19.1694559 50.4893468,20.6126143 C50.4893468,21.7323061 51.1971026,22.6796668 52.1877765,23.0510543 L52.1877765,38.8916986 L50,38.8916986 L50,40.7209894 L53.8769906,40.7209894 C64.6767178,40.7209894 69.7001253,38.0143763 73.9955028,32.9872825 C74.2544603,33.0739089 74.5272412,33.131967 74.8166101,33.131967 C76.2588469,33.131967 77.4283029,31.9625111 77.4283029,30.5193527 C77.4283029,30.0263197 77.2836184,29.5701489 77.0458567,29.1757225 C78.0098054,28.0495798 79.0087732,27.0570628 80.1063477,26.1981716 L80.1063477,33.6802934 C79.1156738,34.0516809 78.407918,34.9990416 78.407918,36.119655 C78.407918,37.5618918 79.5773739,38.7313477 81.0205323,38.7313477 C82.4636907,38.7313477 83.6331466,37.5618918 83.6331466,36.119655 C83.6331466,34.9990416 82.9244692,34.0516809 81.9347169,33.6802934 L81.9347169,24.9457756 C83.5935196,23.9744544 85.5204954,23.2602477 87.8612504,22.7865674 L87.8612504,36.7057653 C86.8714981,37.0780743 86.1637423,38.025435 86.1637423,39.1451268 C86.1637423,40.5882852 87.3331982,41.7577411 88.775435,41.7577411 C90.2185933,41.7577411 91.3880492,40.5882852 91.3880492,39.1451268 C91.3880492,38.025435 90.6802934,37.0780743 89.6896196,36.7057653 L89.6896196,22.4769242 C91.432284,22.2410056 93.385985,22.1156738 95.6170746,22.1101445 L95.6170746,37.9489457 C94.6264008,38.3203332 93.9186449,39.2686155 93.9186449,40.3883073 C93.9186449,41.8305441 95.0881009,43 96.5312592,43 C97.973496,43 99.1429519,41.8305441 99.1429519,40.3883073 C99.1429519,39.2686155 98.4351961,38.3212548 97.4454438,37.9489457 L97.4454438,22.1083014 L99.6332203,22.1083014 Z" id="Fill-1"></path>
                </g>
            </g>
        </g>
    </g>
</svg>