<?xml version="1.0" encoding="UTF-8"?>
<svg width="175px" height="102px" viewBox="0 0 175 102" version="1.1" xmlns="http://www.w3.org/2000/svg" xmlns:xlink="http://www.w3.org/1999/xlink">
    <!-- Generator: Sketch 56.2 (81672) - https://sketch.com -->
    <title>编组 3</title>
    <desc>Created with Sketch.</desc>
    <defs>
        <linearGradient x1="100%" y1="66.3265306%" x2="0%" y2="33.6734694%" id="linearGradient-1">
            <stop stop-color="#FE3876" offset="0%"></stop>
            <stop stop-color="#7C30DD" offset="71.4447846%"></stop>
            <stop stop-color="#3A30DD" offset="100%"></stop>
        </linearGradient>
    </defs>
    <g id="Page-1" stroke="none" stroke-width="1" fill="none" fill-rule="evenodd">
        <g id="桌面端HD" transform="translate(-225.000000, -258.000000)">
            <g id="编组-2" transform="translate(210.000000, 244.000000)">
                <g id="编组-3" transform="translate(15.000000, 14.000000)">
                    <rect id="矩形" fill="url(#linearGradient-1)" x="0" y="1" width="175" height="100" rx="2"></rect>
                    <path d="M165.60419,38.9859589 C165.303102,38.3830801 164.351859,36.962285 162.008607,36.7852782 C161.935226,36.7802611 161.863735,36.7780441 161.790353,36.7780441 L137.656906,36.6255451 L143.866333,6.15071362 C143.885003,6.06717165 143.898002,5.97977964 143.907455,5.89577098 C144.12571,3.98737264 143.736114,2.47522134 142.748832,1.3989737 C141.923319,0.495529998 140.748381,0 139.439571,0 C137.940861,0 136.637836,0.653634299 136.274712,0.853972113 C135.949399,1.03272454 135.661309,1.26771459 135.422848,1.54657777 L88.9907434,55.7957754 C88.9197252,55.8796674 88.8520158,55.9671769 88.7900967,56.0601693 C88.0751882,57.1057281 87.6105611,58.7703887 88.4494222,60.3020262 C88.8780128,61.0852914 89.9841719,62.3969977 92.5716652,62.3969977 C92.6956223,62.3969977 92.8231245,62.3931473 92.9606696,62.3880134 L114.326286,62.3730785 L102.396516,96.4809727 C102.32727,96.6759424 102.279886,96.8786142 102.253889,97.083969 C102.191851,97.5666693 102.086447,99.2440467 103.321762,100.610353 C104.132622,101.50493 105.298101,102 106.609048,102 C107.411873,102 108.261606,101.820081 109.206114,101.452193 C109.62726,101.286276 110.006812,101.032967 110.317354,100.709066 L164.791632,43.7908564 C164.906726,43.6705604 165.011422,43.541397 165.105719,43.4027824 C165.470382,42.8672275 166.589071,40.9659521 165.604147,38.9860281 L165.60419,38.9859589 Z" id="路径" fill="#FFFFFF" opacity="0.200000003"></path>
                </g>
            </g>
        </g>
    </g>
</svg>