<?xml version="1.0" encoding="UTF-8"?>
<svg width="200px" height="200px" viewBox="0 0 200 200" version="1.1" xmlns="http://www.w3.org/2000/svg" xmlns:xlink="http://www.w3.org/1999/xlink">
    <title>C</title>
    <g id="页面-1" stroke="none" stroke-width="1" fill="none" fill-rule="evenodd">
        <g id="C">
            <circle id="蒙版" cx="100" cy="100" r="100"></circle>
            <path d="M140.836919,71.9999998 C143.487886,71.9999998 145.636919,74.1490329 145.636919,76.7999997 C145.636919,79.3952521 143.577267,81.5094471 141.003381,81.5971671 L135.138799,90.3938408 L135.074524,90.4886171 C133.753691,92.403373 131.588389,93.562208 129.262549,93.5990917 L129.148037,93.5999993 L122.03975,93.5996336 C122.705651,95.1236503 123.217854,96.7301904 123.556763,98.3996601 L138.671116,98.3999992 L138.748598,98.3987517 C139.495826,98.3746783 140.189502,98.0034343 140.62402,97.3950566 L140.668037,97.3312797 L146.314929,88.8609433 C145.884375,88.1413305 145.636919,87.2995634 145.636919,86.3999995 C145.636919,83.7490327 147.785952,81.5999996 150.436919,81.5999996 C153.087885,81.5999996 155.236919,83.7490327 155.236919,86.3999995 C155.236919,89.0215057 153.135385,91.1521724 150.525112,91.1992055 L144.661878,99.9938406 L144.597603,100.088617 C143.27677,102.003373 141.111468,103.162208 138.785628,103.199091 L138.671116,103.199999 L124.036798,103.199759 C124.036919,104.843955 123.87163,106.449305 123.556763,108.000338 L138.671116,108 C141.040247,108 143.255117,109.165236 144.597603,111.111381 L144.661878,111.206158 L150.525112,120.000793 C153.135385,120.047826 155.236919,122.178492 155.236919,124.799999 C155.236919,127.450965 153.087885,129.599999 150.436919,129.599999 C147.785952,129.599999 145.636919,127.450965 145.636919,124.799999 C145.636919,123.900435 145.884375,123.058668 146.314929,122.339055 L140.668037,113.868718 C140.237278,113.22258 139.521593,112.82615 138.748598,112.801246 L138.671116,112.799999 L122.03975,112.800365 C121.290987,114.514021 120.347895,116.123339 119.238328,117.600464 L129.071116,117.599999 C131.440247,117.599999 133.655117,118.765236 134.997603,120.711381 L135.061878,120.806157 L140.925112,129.600793 C143.535385,129.647826 145.636919,131.778492 145.636919,134.399999 C145.636919,137.050965 143.487886,139.199998 140.836919,139.199998 C138.185952,139.199998 136.036919,137.050965 136.036919,134.399999 C136.036919,133.500435 136.284375,132.658668 136.71493,131.939055 L131.068037,123.468718 C130.637278,122.822579 129.921593,122.42615 129.148598,122.401246 L129.071116,122.399999 L114.43858,122.400509 C110.427125,125.414171 105.440574,127.199999 100.03692,127.199999 C94.6332655,127.199999 89.6467138,125.414171 85.6352588,122.400509 L71.1658022,122.399999 L71.0883201,122.401246 C70.3410921,122.42532 69.6474168,122.796564 69.2128987,123.404941 L69.1688815,123.468718 L63.5221325,131.939295 C63.9525984,132.658855 64.1999996,133.500535 64.1999996,134.399999 C64.1999996,137.050965 62.0509665,139.199998 59.3999997,139.199998 C56.749033,139.199998 54.5999998,137.050965 54.5999998,134.399999 C54.5999998,131.778417 56.7016538,129.647703 59.3120307,129.600788 L65.1750401,120.806157 L65.2393153,120.711381 C66.560148,118.796625 68.7254505,117.63779 71.0512903,117.600907 L71.1658022,117.599999 L80.8355117,117.600464 C79.7259446,116.123339 78.7828519,114.514021 78.0340896,112.800365 L61.5658024,112.799999 L61.4883204,112.801246 C60.7410924,112.82532 60.047417,113.196564 59.612899,113.804942 L59.5688817,113.868718 L53.9221327,122.339295 C54.3525986,123.058855 54.5999998,123.900535 54.5999998,124.799999 C54.5999998,127.450965 52.4509667,129.599999 49.7999999,129.599999 C47.1490332,129.599999 45,127.450965 45,124.799999 C45,122.178417 47.101654,120.047704 49.7120309,120.000789 L55.5750404,111.206158 L55.6393155,111.111381 C56.9601483,109.196625 59.1254508,108.03779 61.4512904,108.000907 L61.5658024,108 L76.5170758,108.000338 C76.220731,106.540543 76.0568835,105.032632 76.0386327,103.489705 L76.0369201,103.199759 L61.5658024,103.199999 C59.1966713,103.199999 56.9818013,102.034762 55.6393155,100.088617 L55.5750404,99.9938406 L49.7120309,91.1992095 C47.101654,91.1522946 45,89.0215809 45,86.3999995 C45,83.7490327 47.1490332,81.5999996 49.7999999,81.5999996 C52.4509667,81.5999996 54.5999998,83.7490327 54.5999998,86.3999995 C54.5999998,87.2994633 54.3525986,88.1411433 53.9221327,88.8607031 L59.5688817,97.3312797 C59.9996409,97.9774185 60.7153259,98.3738481 61.4883204,98.3987517 L61.5658024,98.3999992 L76.5170758,98.3996601 C76.8559856,96.7301904 77.3681878,95.1236503 78.0340896,93.5996336 L71.0888815,93.5999993 C68.7197503,93.5999993 66.5048803,92.4347626 65.1623945,90.4886171 L65.0981194,90.3938408 L59.2335413,81.5971673 C56.6596536,81.5094493 54.5999998,79.3952535 54.5999998,76.7999997 C54.5999998,74.1490329 56.749033,71.9999998 59.3999997,71.9999998 C62.0509665,71.9999998 64.1999996,74.1490329 64.1999996,76.7999997 C64.1999996,77.7247744 63.9384788,78.5884674 63.4853592,79.3211569 L69.0919608,87.7312799 C69.52272,88.3774187 70.238405,88.7738483 71.0113994,88.7987519 L71.0888815,88.7999994 L80.8355117,88.7995345 C85.2141232,82.970455 92.1852029,79.1999996 100.03692,79.1999996 C107.888636,79.1999996 114.859716,82.970455 119.238328,88.7995345 L129.148037,88.7999994 L129.225519,88.7987519 C129.972747,88.7746785 130.666422,88.4034345 131.100941,87.7950568 L131.144958,87.7312799 L136.751559,79.3211569 C136.29844,78.5884674 136.036919,77.7247744 136.036919,76.7999997 C136.036919,74.1490329 138.185952,71.9999998 140.836919,71.9999998 Z M100.03692,83.9999995 C89.4330526,83.9999995 80.83692,92.5961322 80.83692,103.199999 C80.83692,113.803866 89.4330526,122.399999 100.03692,122.399999 C110.640787,122.399999 119.236919,113.803866 119.236919,103.199999 C119.236919,92.5961322 110.640787,83.9999995 100.03692,83.9999995 Z M100.03692,88.7999994 C107.98982,88.7999994 114.436919,95.2470989 114.436919,103.199999 C114.436919,111.152899 107.98982,117.599999 100.03692,117.599999 C92.0840194,117.599999 85.6369199,111.152899 85.6369199,103.199999 C85.6369199,95.2470989 92.0840194,88.7999994 100.03692,88.7999994 Z M116.836919,60 L116.995673,60.0012861 C122.224384,60.0860617 126.436919,64.3510856 126.436919,69.5999998 C126.436919,74.9019333 122.138853,79.1999996 116.836919,79.1999996 C111.534986,79.1999996 107.236919,74.9019333 107.236919,69.5999998 C107.236919,66.9947394 108.274703,64.6318663 109.959429,62.902222 L110.048694,62.8117749 L116.836919,69.5999998 L116.836919,60 Z M83.2369199,60 L83.2369199,69.5999998 L90.0251448,62.8117749 C91.762403,64.5490331 92.8369197,66.9490331 92.8369197,69.5999998 C92.8369197,74.9019333 88.5388534,79.1999996 83.2369199,79.1999996 C77.9349864,79.1999996 73.6369201,74.9019333 73.6369201,69.5999998 C73.6369201,64.3510856 77.849455,60.0860617 83.0781664,60.0012861 L83.2369199,60 Z" fill="#FFFFFF" fill-rule="nonzero"></path>
        </g>
    </g>
</svg>