<?xml version="1.0" encoding="UTF-8"?>
<svg width="200px" height="200px" viewBox="0 0 200 200" version="1.1" xmlns="http://www.w3.org/2000/svg" xmlns:xlink="http://www.w3.org/1999/xlink">
    <title>D</title>
    <g id="页面-1" stroke="none" stroke-width="1" fill="none" fill-rule="evenodd">
        <g id="D">
            <circle id="蒙版" cx="100" cy="100" r="100"></circle>
            <path d="M61.3915749,69 C65.4592237,69 68.7569221,72.2944529 68.7569221,76.358505 C68.7569221,79.5403827 66.7350616,82.2508424 63.9049889,83.2773629 L63.9053833,121.396106 C69.1740217,121.163723 74.0732828,120.200585 78.426158,118.6042 L78.4260017,89.3803884 C75.595929,88.3538678 73.5740685,85.6434082 73.5740685,82.4615304 C73.5740685,78.3974783 76.8717669,75.1030254 80.9394157,75.1030254 C85.0070645,75.1030254 88.3047628,78.3974783 88.3047628,82.4615304 C88.3047628,85.6434082 86.2829023,88.3538678 83.4528297,89.3803884 L83.4530653,116.349325 C88.2927157,113.735378 92.1699371,110.197541 94.7410251,105.925151 C92.9965509,104.354508 91.9001693,102.080131 91.9001693,99.5500017 C91.9001693,94.8116899 95.7447159,90.9708916 100.487256,90.9708916 C100.876699,90.9708916 101.260086,90.9967908 101.635786,91.0469593 C108.176087,79.685585 122.199899,72.8042671 138.932089,72.6303193 L139.582938,72.6269408 L166.461219,72.6269408 C167.849273,72.6269408 168.974513,73.7511355 168.974513,75.1378999 C168.974513,76.475137 167.928212,77.5682244 166.608894,77.6445964 L166.461219,77.6488589 L161.644073,77.6488589 L161.644254,115.822603 C164.474359,116.849047 166.496126,119.559358 166.496126,122.741498 C166.496126,126.805215 163.198274,130.100003 159.130779,130.100003 C155.063283,130.100003 151.765432,126.805215 151.765432,122.741498 C151.765432,119.559043 153.787599,116.84851 156.618146,115.822298 L156.617485,77.6488589 L142.095673,77.6488589 L142.096413,115.822603 C144.926519,116.849047 146.948285,119.559358 146.948285,122.741498 C146.948285,126.805215 143.650434,130.100003 139.582938,130.100003 C135.515443,130.100003 132.217591,126.805215 132.217591,122.741498 C132.217591,119.559358 134.239357,116.849047 137.069463,115.822603 L137.06913,77.7038971 C131.800491,77.9362801 126.90123,78.8994186 122.548355,80.4958038 L122.548572,109.719578 C125.378678,110.746022 127.400444,113.456333 127.400444,116.638473 C127.400444,120.70219 124.102593,123.996978 120.035097,123.996978 C115.967602,123.996978 112.66975,120.70219 112.66975,116.638473 C112.66975,113.456333 114.691517,110.746022 117.521622,109.719578 L117.521448,82.7506783 C112.681797,85.3646257 108.804576,88.9024625 106.233488,93.1748525 C107.978006,94.7453296 109.074344,97.0196951 109.074344,99.5500017 C109.074344,104.287981 105.229641,108.129112 100.487256,108.129112 C100.097827,108.129112 99.7144509,108.10321 99.3387598,108.053038 C92.7985108,119.414377 78.7746643,126.295736 62.0424243,126.469684 L61.3915749,126.473063 L34.5132938,126.473063 C33.12524,126.473063 32,125.348868 32,123.962103 C32,122.624866 33.0463009,121.531779 34.3656187,121.455407 L34.5132938,121.451144 L39.3304403,121.450865 L39.3304477,83.2774092 C36.5003082,82.2509238 34.478387,79.5404305 34.478387,76.358505 C34.478387,72.2944529 37.7760853,69 41.8437341,69 C45.9113829,69 49.2090813,72.2944529 49.2090813,76.358505 C49.2090813,79.5401164 47.1875592,82.2503886 44.3578587,83.2771051 L44.3570279,121.450865 L58.8780018,121.450865 L58.8781609,83.2773629 C56.0480883,82.2508424 54.0262277,79.5403827 54.0262277,76.358505 C54.0262277,72.2944529 57.3239261,69 61.3915749,69 Z" fill="#FFFFFF"></path>
        </g>
    </g>
</svg>