<?xml version="1.0" encoding="UTF-8"?>
<svg width="23px" height="33px" viewBox="0 0 23 33" version="1.1" xmlns="http://www.w3.org/2000/svg" xmlns:xlink="http://www.w3.org/1999/xlink">
    <!-- Generator: Sketch 55.1 (78136) - https://sketchapp.com -->
    <title>形状</title>
    <desc>Created with Sketch.</desc>
    <g id="Page-1" stroke="none" stroke-width="1" fill="none" fill-rule="evenodd">
        <g id="桌面端HD" transform="translate(-1502.000000, -76.000000)" fill="#B3B3B3" fill-rule="nonzero">
            <g id="编组-2" transform="translate(1316.000000, 50.000000)">
                <g id="编组" transform="translate(15.000000, 12.000000)">
                    <path d="M193.770195,40.4116148 L171.229845,40.4116148 C171.229845,40.4116148 168.413323,29.0755898 182.499171,29.0755898 C196.586717,29.0755898 193.770195,40.4116148 193.770195,40.4116148 L193.770195,40.4116148 Z M176.962735,19.5490442 C176.962735,19.5490442 176.962735,14 182.597451,14 C188.232088,14 188.232088,19.5490442 188.232088,19.5490442 C188.232088,19.5490442 188.230429,27.8775239 182.597451,27.8775239 C176.962735,27.8775239 176.962735,19.5490442 176.962735,19.5490442 Z M183.114846,41.5125898 L183.114846,43.3832982 L176.856761,43.3832982 L176.856761,45.1292916 L183.114846,45.1292916 L183.114846,47 L188.096053,44.2562872 L183.114846,41.5125898 Z M181.402984,36.8251266 L187.661068,36.8251266 L187.661068,35.0791331 L181.402984,35.0791331 L181.402984,33.2084248 L176.421777,35.9659882 L181.402984,38.7235517 L181.402984,36.8251291 L181.402984,36.8251266 Z" id="形状"></path>
                </g>
            </g>
        </g>
    </g>
</svg>