<?xml version="1.0" encoding="UTF-8"?>
<svg width="72px" height="72px" viewBox="0 0 72 72" version="1.1" xmlns="http://www.w3.org/2000/svg" xmlns:xlink="http://www.w3.org/1999/xlink">
    <!-- Generator: Sketch 55.1 (78136) - https://sketchapp.com -->
    <title>路径</title>
    <desc>Created with Sketch.</desc>
    <g id="Page-1" stroke="none" stroke-width="1" fill="none" fill-rule="evenodd" stroke-dasharray="4,4">
        <g id="桌面端HD" transform="translate(-764.000000, -330.000000)" fill-rule="nonzero" stroke="#302B3C" stroke-width="3">
            <path d="M833.993125,390.157857 L833.993101,389.667261 C833.993102,391.132716 833.993719,392.598162 833.994952,394.063617 C833.995372,394.726931 833.995791,395.166625 833.996462,396.011804 L833.997132,396.822773 L834,400 L766,400 L766.002432,397.313371 L766.003102,396.502402 C766.003773,395.657223 766.004192,395.217529 766.004612,394.554214 L766.005534,393.230436 C766.006372,391.925859 766.006875,390.871566 766.006875,390.157859 C766.006875,384.280177 772.350244,379.513302 783.052321,374.402988 C785.528912,373.206658 790.452498,371.307688 790.436903,371.315151 C790.540118,370.897676 790.330584,370.487161 789.884182,369.892182 C789.671798,369.609114 789.42034,369.302988 789.050407,368.87302 C788.977963,368.788838 788.928158,368.731235 788.801381,368.584921 C788.672508,368.436512 788.672508,368.436512 788.539778,368.283323 L788.53978,368.283325 C788.353799,368.069366 788.169331,367.854098 787.986389,367.637535 C787.425032,366.971286 786.97033,366.387375 786.549082,365.772524 C783.399952,361.172504 782.434872,356.31566 782.434872,350.819902 C782.434872,343.545914 785.11647,338.333223 789.692845,335.14871 C792.783952,332.997864 796.488317,332 799.216199,332 L800.783721,332 C803.511686,332 807.216051,332.997864 810.307074,335.14871 C814.883533,338.333223 817.565131,343.545914 817.565131,350.819902 C817.565131,356.31784 816.600722,361.172755 813.450754,365.772691 C813.029841,366.387626 812.574803,366.971957 812.012776,367.638876 L812.012775,367.638878 C811.830025,367.855297 811.645753,368.070426 811.459971,368.284249 L811.19862,368.585679 C811.07201,368.731825 811.022205,368.789428 810.949761,368.873526 C810.580247,369.303243 810.328957,369.609117 810.11674,369.892017 C809.670338,370.487164 809.460721,370.897763 809.402028,371.235835 C809.548089,371.307608 814.463961,373.203726 816.94223,374.400392 C827.650763,379.51364 833.993125,384.281186 833.993125,390.157862 L833.993125,390.157857 Z" id="路径"></path>
        </g>
    </g>
</svg>